# xmcd
#
# Track frame offsets: 
#        150
#        9577
#        36074
#        60646
#        88276
#        104986
#        119011
#        131475
#        150281
#        160850
#        176307
#        193500
#        205354
#        217129
#        230803
#        251223
#        281917
#
# Disc length: 4116 seconds
#
# Revision: 0
# Processed by: cddbd v1.5.2PL0 Copyright (c) Steve Scherf et al.
# Submitted via: ExactAudioCopy v1.0b3
#
DISCID=03101211
DTITLE=Various Artist - Spirituals, Gospels and Blues
DYEAR=2007
DGENRE=Gospel
TTITLE0=The Stars of Faith - I’ve been Buked
TTITLE1=The Stars of Faith - Sometimes I Feel Like a Motherless Child
TTITLE2=The Stars of Faith - The Old Landmark
TTITLE3=Montreal Jubilation Gospel Choir - Yes, God is Real
TTITLE4=Louis Armstrong with jazz ensemble and choir - Go Down Moses
TTITLE5=Louis Armstrong with jazz ensemble and choir - On My Way (Got 
TTITLE5=on My Travelin’ Shoes)
TTITLE6=Sister Rosetta Tharpe - Swing Low, Sweet Chariot
TTITLE7=The Stars of Faith - Nobody Knows the Troubles I’ve Seen
TTITLE8=Mahalia Jackson - Amazing Grace
TTITLE9=Mahalia Jackson - Since the Fire Started Burning in My Soul
TTITLE10=Mahalia Jackson - A City Called Heaven
TTITLE11=Mahalia Jackson - He’s Got the Whole World in His Hands
TTITLE12=Montreal Jubilation Gospel Choir - I Love To Praise His Name
TTITLE13=Lonnie Johnson (vocals, guitar) - See See Rider
TTITLE14=John Henry Barbee - John Henry
TTITLE15=Chicago’s Young Blues Generation - Breaking Up Somebody’s Hom
TTITLE15=e
TTITLE16=Jimmy Grissom - Lil Greenwood - Blues Potpourri: Workin’ Blues
TTITLE16=My Man Sends Me - Jail Blues - Lovin' Lover
EXTD=
EXTT0=
EXTT1=
EXTT2=
EXTT3=
EXTT4=
EXTT5=
EXTT6=
EXTT7=
EXTT8=
EXTT9=
EXTT10=
EXTT11=
EXTT12=
EXTT13=
EXTT14=
EXTT15=
EXTT16=
PLAYORDER=
